<svg width="303" height="90" viewBox="0 0 303 90" xmlns="http://www.w3.org/2000/svg" xmlns:xlink="http://www.w3.org/1999/xlink" overflow="hidden"><text id="PlayAr_und" fill="#E8A489" font-family="GreatWishes,Great Wishes" font-size="46" transform="matrix(1 0 0 1 0 76)"><tspan xml:space="preserve" x="0" y="0">PlayAr  und</tspan></text><path d="M15.913 16.858C15.8605 14.3429 15.3311 11.8607 14.353 9.543 8.1643 12.4084 3.60796 17.9245 1.963 24.543 2.87826 26.6561 4.20777 28.5644 5.873 30.155 7.4471 24.6263 11.0272 19.8837 15.913 16.855ZM13.377 7.558C12.3335 5.7259 11.0017 4.07376 9.433 2.665 2.96184 6.23267-0.49849 13.5425 0.844 20.809 3.20169 14.9693 7.67857 10.236 13.378 7.557ZM26.269 18.982C26.9058 12.1842 24.4445 5.46157 19.569 0.682 17.2861 0.401713 14.9699 0.602001 12.769 1.27 16.7535 5.43122 19.0461 10.9268 19.2 16.686 21.3875 17.8994 23.7882 18.6802 26.271 18.986ZM17.7 19.64C15.5603 20.949 13.6898 22.6542 12.189 24.664 17.7092 28.6147 24.7297 29.8326 31.258 27.972 32.6338 26.1148 33.6202 23.9988 34.158 21.751 32.3414 22.2173 30.4745 22.4591 28.599 22.471 24.7871 22.4486 21.041 21.4756 17.7 19.64ZM10.945 26.54C9.90627 28.3535 9.16169 30.3203 8.739 32.367 14.9871 36.2327 23.0177 35.614 28.6 30.837 22.3824 31.7047 16.068 30.1675 10.945 26.539ZM23.335 1.585C27.1891 6.58225 29.0192 12.8479 28.461 19.134 30.555 19.1383 32.6362 18.8064 34.625 18.151 34.625 18.013 34.646 17.874 34.646 17.736 34.6592 10.5057 30.1342 4.04446 23.335 1.585Z" id="Icon_awesome-volleyball-ball" fill="#32C137" transform="translate(186.437 37.215)"/></svg>